name C:\Users\u0101727\Documents\MyRepositories\upper-imu-dc\Results\main_tracking\Case_31\FLX01_orientations_groundFrame.mot
datacolumns 13
datarows 21
range 3.51000000 3.71000000
endheader 
time	radius_imu_[0][0]	radius_imu_[0][1]	radius_imu_[0][2]	radius_imu_[1][0]	radius_imu_[1][1]	radius_imu_[1][2]	radius_imu_[2][0]	radius_imu_[2][1]	radius_imu_[2][2]	radius_imu_x	radius_imu_y	radius_imu_z	
          3.51000000	          0.97054501	         -0.08045125	         -0.22709027	         -0.03254046	         -0.97773408	          0.20730939	         -0.23871219	         -0.19381347	         -0.95155285	         -2.92708037	         -0.22908884	          0.08270378	
          3.52000000	          0.97101676	         -0.08146442	         -0.22469980	         -0.03400938	         -0.97764867	          0.20747638	         -0.23657940	         -0.19382114	         -0.95208380	         -2.92702892	         -0.22663495	          0.08369999	
          3.53000000	          0.97133879	         -0.08247107	         -0.22293381	         -0.03530766	         -0.97753662	          0.20778719	         -0.23506240	         -0.19396049	         -0.95243110	         -2.92679324	         -0.22482299	          0.08470140	
          3.54000000	          0.97151596	         -0.08345735	         -0.22179181	         -0.03642458	         -0.97740091	          0.20823233	         -0.23415804	         -0.19422236	         -0.95260049	         -2.92638425	         -0.22365167	          0.08569387	
          3.55000000	          0.97155898	         -0.08441313	         -0.22124100	         -0.03736003	         -0.97724478	          0.20879862	         -0.23383195	         -0.19459460	         -0.95260462	         -2.92581788	         -0.22308682	          0.08666656	
          3.56000000	          0.97148376	         -0.08533235	         -0.22121864	         -0.03812431	         -0.97707157	          0.20947002	         -0.23402102	         -0.19506291	         -0.95246240	         -2.92511416	         -0.22306390	          0.08761228	
          3.57000000	          0.97130876	         -0.08621285	         -0.22164529	         -0.03873501	         -0.97688446	          0.21022929	         -0.23464631	         -0.19561212	         -0.95219589	         -2.92429499	         -0.22350141	          0.08852747	
          3.58000000	          0.97105126	         -0.08705542	         -0.22244283	         -0.03921219	         -0.97668627	          0.21106003	         -0.23563077	         -0.19622763	         -0.95182606	         -2.92338117	         -0.22431936	          0.08941167	
          3.59000000	          0.97072428	         -0.08786238	         -0.22354992	         -0.03957339	         -0.97647939	          0.21194797	         -0.23691414	         -0.19689641	         -0.95136927	         -2.92239032	         -0.22545505	          0.09026622	
          3.60000000	          0.97033512	         -0.08863581	         -0.22492987	         -0.03983028	         -0.97626586	          0.21288148	         -0.23846027	         -0.19760735	         -0.95083544	         -2.92133605	         -0.22687106	          0.09109277	
          3.61000000	          0.96988539	         -0.08937634	         -0.22657053	         -0.03998735	         -0.97604745	          0.21385132	         -0.24025683	         -0.19835132	         -0.95022808	         -2.92022813	         -0.22855519	          0.09189192	
          3.62000000	          0.96937269	         -0.09008265	         -0.22847692	         -0.04004309	         -0.97582579	          0.21485012	         -0.24230794	         -0.19912092	         -0.94954606	         -2.91907341	         -0.23051293	          0.09266268	
          3.63000000	          0.96879410	         -0.09075170	         -0.23065584	         -0.03999365	         -0.97560243	          0.21587128	         -0.24461908	         -0.19991005	         -0.94878737	         -2.91787775	         -0.23275164	          0.09340235	
          3.64000000	          0.96815152	         -0.09137919	         -0.23309328	         -0.03983856	         -0.97537901	          0.21690708	         -0.24717508	         -0.20071282	         -0.94795509	         -2.91664928	         -0.23525737	          0.09410643	
          3.65000000	          0.96745779	         -0.09195994	         -0.23573033	         -0.03958709	         -0.97515753	          0.21794644	         -0.24991655	         -0.20152210	         -0.94706418	         -2.91540225	         -0.23797001	          0.09476845	
          3.66000000	          0.96674164	         -0.09248839	         -0.23844599	         -0.03926326	         -0.97494060	          0.21897311	         -0.25272315	         -0.20232825	         -0.94614707	         -2.91416023	         -0.24076537	          0.09537994	
          3.67000000	          0.96604968	         -0.09295937	         -0.24105303	         -0.03890807	         -0.97473147	          0.21996527	         -0.25540981	         -0.20311847	         -0.94525590	         -2.91295720	         -0.24345073	          0.09593092	
          3.68000000	          0.96544410	         -0.09336934	         -0.24331021	         -0.03857823	         -0.97453389	          0.22089683	         -0.25773904	         -0.20387706	         -0.94446002	         -2.91183580	         -0.24577717	          0.09641145	
          3.69000000	          0.96499487	         -0.09371834	         -0.24495259	         -0.03834073	         -0.97435156	          0.22174091	         -0.25945113	         -0.20458718	         -0.94383748	         -2.91084184	         -0.24747080	          0.09681435	
          3.70000000	          0.96476604	         -0.09401283	         -0.24573986	         -0.03826316	         -0.97418714	          0.22247551	         -0.26031217	         -0.20523403	         -0.94345989	         -2.91001500	         -0.24828289	          0.09713955	
          3.71000000	          0.96479825	         -0.09426880	         -0.24551523	         -0.03840132	         -0.97404102	          0.22309064	         -0.26017239	         -0.20580935	         -0.94337312	         -2.90937684	         -0.24805115	          0.09739913	
